<svg width="91" height="34" viewBox="0 0 91 34" fill="none" xmlns="http://www.w3.org/2000/svg">
  <path d="M14.05 8.112L7.024 4.056 0 8.112V4.056L7.025 0l7.026 4.056v4.056h-.001z" fill="#A435F0"/>
  <path d="M0 11.518h3.68v8.941c0 2.31 1.725 3.436 3.345 3.436 1.634 0 3.346-1.156 3.346-3.467v-8.91h3.68v9.154c0 2.128-.669 3.796-2.007 5.001-1.339 1.205-3.024 1.808-5.05 1.808-2.024 0-3.71-.603-5.048-1.808C.608 24.468 0 22.8 0 20.672v-9.154z" fill="#fff"/>
  <path d="M45.866 22.63c-1.114.992-2.383 1.478-3.83 1.478-2.64 0-4.41-1.504-4.6-3.833h11.89s.08-.677.08-1.268c0-2.064-.624-3.68-1.843-4.835-1.219-1.154-2.689-1.721-4.39-1.721-2.153 0-3.998.63-5.519 1.901-1.521 1.271-2.298 3.062-2.298 5.368 0 2.248.764 4.005 2.298 5.276 1.521 1.271 3.394 1.897 5.631 1.897 3.587 0 5.926-1.283 7.061-3.851h-3.764c-.291.622-.784 1.099-1.716 1.588zm-6.423-6.93c.525-.802 1.313-1.174 2.401-1.174.98 0 1.762.372 2.346 1.174.584.802.876 1.74.876 2.882h-6.499c0-1.141.292-2.08.876-2.882z" fill="#fff"/>
  <path d="M58.51 11.524h3.594v10.485c0 1.939.863 2.932 2.632 2.932h3.525v-3.444h-1.959c-.43 0-.67-.26-.67-.771V11.524h2.629V8.455h-2.629V4.956h-3.594v3.499H58.51v3.069z" fill="#fff"/>
  <path d="M34.957 11.524h3.594v10.485c0 1.939.863 2.932 2.632 2.932h3.525v-3.444h-1.959c-.43 0-.67-.26-.67-.771V11.524h2.629V8.455h-2.629V4.956h-3.594v3.499h-3.528v3.069z" fill="#fff"/>
  <path d="M24.779 14.785c.819-1.272 2.243-1.853 3.741-1.853 1.484 0 2.879.581 3.725 1.853v-6.32h3.594v16.36h-3.594v-1.655c-.846 1.271-2.241 1.853-3.725 1.853-1.498 0-2.922-.581-3.741-1.853-1.414-2.197-1.414-5.649 0-7.846v.001zm1.017 5.68c.4 1.063 1.352 1.692 2.466 1.692 1.114 0 2.066-.629 2.466-1.692a5.104 5.104 0 000-3.681c-.4-1.063-1.352-1.692-2.466-1.692-1.114 0-2.066.629-2.466 1.692a5.104 5.104 0 000 3.681z" fill="#fff"/>
  <path d="M69.227 11.524h3.594v1.848c.821-1.364 2.277-2.008 3.688-2.008 1.286 0 2.445.508 3.447 1.512.723.724 1.132 1.7 1.245 2.94.019.244.028.487.028.732 0 .229-.009.473-.019.716v8.208h-3.594v-7.832c0-.916-.164-1.607-.492-2.09-.329-.482-.844-.724-1.542-.724-.901 0-1.632.422-2.203 1.256-.246.365-.388.771-.431 1.215a8.706 8.706 0 00-.019.62v7.555h-3.594V11.524h-.108z" fill="#fff"/>
  <path d="M82.228 8.572h3.594v3.837c.79-1.364 2.284-2.004 3.783-2.004 1.27 0 2.428.515 3.425 1.533.72.738 1.126 1.732 1.237 2.983.018.244.027.487.027.732 0 .229-.009.473-.018.716v8.263h-3.594v-7.865c0-.929-.162-1.627-.488-2.113-.326-.486-.84-.73-1.534-.73-.894 0-1.62.43-2.186 1.276a2.717 2.717 0 00-.427 1.23c-.011.161-.018.365-.018.614v7.588h-3.594V8.572h-.207z" fill="#fff"/>
</svg>